<svg width="256" height="256" viewBox="0 0 256 256" fill="none" xmlns="http://www.w3.org/2000/svg">
<g clip-path="url(#clip0_28_9)">
<path d="M50 0.5H206C233.338 0.5 255.5 22.6619 255.5 50V206C255.5 233.338 233.338 255.5 206 255.5H50C22.6619 255.5 0.5 233.338 0.5 206V50C0.5 22.6619 22.6619 0.5 50 0.5Z" fill="#1A325E" stroke="black"/>
<path fill-rule="evenodd" clip-rule="evenodd" d="M36.3571 152.411C36.3571 133.67 48.8276 117.852 65.9241 112.786C68.5174 84.4569 92.3407 62.2678 121.347 62.2678C142.54 62.2678 160.953 74.1124 170.352 91.5194C198.442 95.5386 219.643 121.223 219.643 149.868C219.643 166.054 213.331 177.221 204.927 184.241C196.794 191.035 187.057 193.657 180.184 193.732H180.146H180.109C159.654 193.732 142.974 177.57 142.143 157.319L139.471 160.425C137.009 163.286 132.693 163.61 129.831 161.147C126.97 158.685 126.646 154.369 129.108 151.508L140.236 138.576C145.383 132.595 154.683 132.709 159.682 138.816L170.175 151.637C172.567 154.558 172.136 158.865 169.215 161.256C166.293 163.647 161.987 163.217 159.596 160.295L155.782 155.635C155.782 155.668 155.782 155.701 155.782 155.734C155.782 169.157 166.653 180.041 180.071 180.062C184.1 180.008 190.69 178.321 196.164 173.749C201.384 169.388 205.972 162.1 205.972 149.868C205.972 126.543 187.793 106.255 165.432 104.738C164.443 104.671 163.443 104.637 162.435 104.637C138.417 104.637 118.941 124.086 118.898 148.094L119.001 152.328V152.411C119.001 175.232 100.5 193.732 77.6786 193.732C54.8572 193.732 36.3571 175.232 36.3571 152.411ZM87.9437 112.661C85.525 111.789 82.3875 111.341 79.9012 111.171C83.1314 91.1938 100.457 75.9382 121.347 75.9382C134.551 75.9382 146.34 82.0336 154.041 91.5778C126.426 95.6385 105.227 119.431 105.227 148.174V148.256L105.33 152.488C105.288 167.724 92.9239 180.062 77.6786 180.062C62.4077 180.062 50.0277 167.682 50.0277 152.411C50.0277 138.549 60.2337 127.059 73.5396 125.066C74.8861 124.864 76.268 124.759 77.6786 124.759C79.4532 124.759 82.1811 125.115 83.305 125.521C86.8562 126.802 90.773 124.961 92.054 121.41C93.335 117.859 91.4949 113.942 87.9437 112.661Z" fill="white"/>
</g>
<defs>
<clipPath id="clip0_28_9">
<rect width="256" height="256" fill="white"/>
</clipPath>
</defs>
</svg>
